<mxfile host="Electron" modified="2023-12-13T19:33:47.528Z" agent="Mozilla/5.0 (Windows NT 10.0; Win64; x64) AppleWebKit/537.36 (KHTML, like Gecko) draw.io/22.1.2 Chrome/114.0.5735.289 Electron/25.9.4 Safari/537.36" etag="t7fNsjUVe1D51TTyQDef" version="22.1.2" type="device">
  <diagram name="Page-1" id="TI3Dr2VYLWcYJSsMlEEf">
    <mxGraphModel dx="2053" dy="1658" grid="1" gridSize="10" guides="1" tooltips="1" connect="1" arrows="1" fold="1" page="1" pageScale="1.3" pageWidth="850" pageHeight="1100" math="0" shadow="0">
      <root>
        <mxCell id="0" />
        <mxCell id="1" parent="0" />
        <mxCell id="HrcSeMDK22qykb-ifzZP-1" value="&lt;b&gt;p_mat_storage_datapath&lt;/b&gt;" style="rounded=0;whiteSpace=wrap;html=1;" parent="1" vertex="1">
          <mxGeometry x="175" y="388" width="310" height="300" as="geometry" />
        </mxCell>
        <mxCell id="HrcSeMDK22qykb-ifzZP-2" value="&lt;b&gt;p_mat_storage_controller&lt;/b&gt;" style="rounded=0;whiteSpace=wrap;html=1;" parent="1" vertex="1">
          <mxGeometry x="635" y="388" width="310" height="300" as="geometry" />
        </mxCell>
        <mxCell id="HrcSeMDK22qykb-ifzZP-3" value="" style="triangle;whiteSpace=wrap;html=1;direction=north;" parent="1" vertex="1">
          <mxGeometry x="315" y="658" width="30" height="30" as="geometry" />
        </mxCell>
        <mxCell id="HrcSeMDK22qykb-ifzZP-4" value="rst" style="text;html=1;strokeColor=none;fillColor=none;align=center;verticalAlign=middle;whiteSpace=wrap;rounded=0;" parent="1" vertex="1">
          <mxGeometry x="265" y="658" width="60" height="30" as="geometry" />
        </mxCell>
        <mxCell id="HrcSeMDK22qykb-ifzZP-5" value="" style="triangle;whiteSpace=wrap;html=1;direction=north;" parent="1" vertex="1">
          <mxGeometry x="785" y="658" width="30" height="30" as="geometry" />
        </mxCell>
        <mxCell id="HrcSeMDK22qykb-ifzZP-6" value="rst" style="text;html=1;strokeColor=none;fillColor=none;align=center;verticalAlign=middle;whiteSpace=wrap;rounded=0;" parent="1" vertex="1">
          <mxGeometry x="735" y="658" width="60" height="30" as="geometry" />
        </mxCell>
        <mxCell id="HrcSeMDK22qykb-ifzZP-7" value="data_in" style="text;html=1;strokeColor=none;fillColor=none;align=center;verticalAlign=middle;whiteSpace=wrap;rounded=0;" parent="1" vertex="1">
          <mxGeometry x="175" y="388" width="60" height="30" as="geometry" />
        </mxCell>
        <mxCell id="HrcSeMDK22qykb-ifzZP-8" value="storage_rd_slice_addr" style="text;html=1;strokeColor=none;fillColor=none;align=center;verticalAlign=middle;whiteSpace=wrap;rounded=0;" parent="1" vertex="1">
          <mxGeometry x="175" y="418" width="130" height="30" as="geometry" />
        </mxCell>
        <mxCell id="HrcSeMDK22qykb-ifzZP-9" value="storage_rd_slice_data" style="text;html=1;strokeColor=none;fillColor=none;align=center;verticalAlign=middle;whiteSpace=wrap;rounded=0;" parent="1" vertex="1">
          <mxGeometry x="355" y="388" width="130" height="30" as="geometry" />
        </mxCell>
        <mxCell id="HrcSeMDK22qykb-ifzZP-10" value="decode_en" style="text;html=1;strokeColor=none;fillColor=none;align=center;verticalAlign=middle;whiteSpace=wrap;rounded=0;" parent="1" vertex="1">
          <mxGeometry x="415" y="428" width="70" height="30" as="geometry" />
        </mxCell>
        <mxCell id="HrcSeMDK22qykb-ifzZP-51" style="edgeStyle=orthogonalEdgeStyle;rounded=0;orthogonalLoop=1;jettySize=auto;html=1;entryX=0;entryY=0.5;entryDx=0;entryDy=0;" parent="1" source="HrcSeMDK22qykb-ifzZP-11" target="HrcSeMDK22qykb-ifzZP-21" edge="1">
          <mxGeometry relative="1" as="geometry" />
        </mxCell>
        <mxCell id="HrcSeMDK22qykb-ifzZP-11" value="decoded_data_ready" style="text;html=1;strokeColor=none;fillColor=none;align=center;verticalAlign=middle;whiteSpace=wrap;rounded=0;" parent="1" vertex="1">
          <mxGeometry x="365" y="458" width="120" height="30" as="geometry" />
        </mxCell>
        <mxCell id="HrcSeMDK22qykb-ifzZP-12" value="storage_wr_en" style="text;html=1;strokeColor=none;fillColor=none;align=center;verticalAlign=middle;whiteSpace=wrap;rounded=0;" parent="1" vertex="1">
          <mxGeometry x="385" y="488" width="100" height="30" as="geometry" />
        </mxCell>
        <mxCell id="HrcSeMDK22qykb-ifzZP-13" value="storage_row_idx" style="text;html=1;strokeColor=none;fillColor=none;align=center;verticalAlign=middle;whiteSpace=wrap;rounded=0;" parent="1" vertex="1">
          <mxGeometry x="365" y="543" width="120" height="30" as="geometry" />
        </mxCell>
        <mxCell id="HrcSeMDK22qykb-ifzZP-14" value="storage_col_idx" style="text;html=1;strokeColor=none;fillColor=none;align=center;verticalAlign=middle;whiteSpace=wrap;rounded=0;" parent="1" vertex="1">
          <mxGeometry x="365" y="568" width="120" height="30" as="geometry" />
        </mxCell>
        <mxCell id="HrcSeMDK22qykb-ifzZP-46" style="edgeStyle=orthogonalEdgeStyle;rounded=0;orthogonalLoop=1;jettySize=auto;html=1;entryX=0;entryY=0.5;entryDx=0;entryDy=0;" parent="1" source="HrcSeMDK22qykb-ifzZP-15" target="HrcSeMDK22qykb-ifzZP-27" edge="1">
          <mxGeometry relative="1" as="geometry">
            <Array as="points">
              <mxPoint x="535" y="613" />
              <mxPoint x="535" y="643" />
            </Array>
          </mxGeometry>
        </mxCell>
        <mxCell id="HrcSeMDK22qykb-ifzZP-15" value="storage_wr_done" style="text;html=1;strokeColor=none;fillColor=none;align=center;verticalAlign=middle;whiteSpace=wrap;rounded=0;" parent="1" vertex="1">
          <mxGeometry x="365" y="598" width="120" height="30" as="geometry" />
        </mxCell>
        <mxCell id="HrcSeMDK22qykb-ifzZP-16" value="en" style="text;html=1;strokeColor=none;fillColor=none;align=center;verticalAlign=middle;whiteSpace=wrap;rounded=0;" parent="1" vertex="1">
          <mxGeometry x="635" y="388" width="60" height="30" as="geometry" />
        </mxCell>
        <mxCell id="HrcSeMDK22qykb-ifzZP-17" value="rd_data_in" style="text;html=1;strokeColor=none;fillColor=none;align=center;verticalAlign=middle;whiteSpace=wrap;rounded=0;" parent="1" vertex="1">
          <mxGeometry x="635" y="418" width="70" height="30" as="geometry" />
        </mxCell>
        <mxCell id="HrcSeMDK22qykb-ifzZP-18" value="rdy_data_in" style="text;html=1;strokeColor=none;fillColor=none;align=center;verticalAlign=middle;whiteSpace=wrap;rounded=0;" parent="1" vertex="1">
          <mxGeometry x="875" y="388" width="70" height="30" as="geometry" />
        </mxCell>
        <mxCell id="HrcSeMDK22qykb-ifzZP-19" value="done" style="text;html=1;strokeColor=none;fillColor=none;align=center;verticalAlign=middle;whiteSpace=wrap;rounded=0;" parent="1" vertex="1">
          <mxGeometry x="875" y="408" width="70" height="30" as="geometry" />
        </mxCell>
        <mxCell id="HrcSeMDK22qykb-ifzZP-21" value="decode_data_ready" style="text;html=1;strokeColor=none;fillColor=none;align=center;verticalAlign=middle;whiteSpace=wrap;rounded=0;" parent="1" vertex="1">
          <mxGeometry x="635" y="478" width="110" height="30" as="geometry" />
        </mxCell>
        <mxCell id="HrcSeMDK22qykb-ifzZP-50" style="edgeStyle=orthogonalEdgeStyle;rounded=0;orthogonalLoop=1;jettySize=auto;html=1;entryX=1;entryY=0.5;entryDx=0;entryDy=0;" parent="1" source="HrcSeMDK22qykb-ifzZP-23" target="HrcSeMDK22qykb-ifzZP-10" edge="1">
          <mxGeometry relative="1" as="geometry" />
        </mxCell>
        <mxCell id="HrcSeMDK22qykb-ifzZP-23" value="decode_en" style="text;html=1;strokeColor=none;fillColor=none;align=center;verticalAlign=middle;whiteSpace=wrap;rounded=0;" parent="1" vertex="1">
          <mxGeometry x="635" y="448" width="80" height="30" as="geometry" />
        </mxCell>
        <mxCell id="HrcSeMDK22qykb-ifzZP-53" style="edgeStyle=orthogonalEdgeStyle;rounded=0;orthogonalLoop=1;jettySize=auto;html=1;entryX=1;entryY=0.5;entryDx=0;entryDy=0;" parent="1" source="HrcSeMDK22qykb-ifzZP-24" target="HrcSeMDK22qykb-ifzZP-12" edge="1">
          <mxGeometry relative="1" as="geometry">
            <Array as="points">
              <mxPoint x="585" y="558" />
              <mxPoint x="585" y="503" />
            </Array>
          </mxGeometry>
        </mxCell>
        <mxCell id="HrcSeMDK22qykb-ifzZP-24" value="storage_wr_en" style="text;html=1;strokeColor=none;fillColor=none;align=center;verticalAlign=middle;whiteSpace=wrap;rounded=0;" parent="1" vertex="1">
          <mxGeometry x="635" y="543" width="110" height="30" as="geometry" />
        </mxCell>
        <mxCell id="HrcSeMDK22qykb-ifzZP-43" style="edgeStyle=orthogonalEdgeStyle;rounded=0;orthogonalLoop=1;jettySize=auto;html=1;entryX=1;entryY=0.5;entryDx=0;entryDy=0;" parent="1" source="HrcSeMDK22qykb-ifzZP-25" target="HrcSeMDK22qykb-ifzZP-13" edge="1">
          <mxGeometry relative="1" as="geometry" />
        </mxCell>
        <mxCell id="HrcSeMDK22qykb-ifzZP-47" value="/7" style="edgeLabel;html=1;align=center;verticalAlign=middle;resizable=0;points=[];" parent="HrcSeMDK22qykb-ifzZP-43" vertex="1" connectable="0">
          <mxGeometry x="-0.6333" y="1" relative="1" as="geometry">
            <mxPoint as="offset" />
          </mxGeometry>
        </mxCell>
        <mxCell id="HrcSeMDK22qykb-ifzZP-25" value="storage_row_idx" style="text;html=1;strokeColor=none;fillColor=none;align=center;verticalAlign=middle;whiteSpace=wrap;rounded=0;" parent="1" vertex="1">
          <mxGeometry x="635" y="573" width="110" height="30" as="geometry" />
        </mxCell>
        <mxCell id="HrcSeMDK22qykb-ifzZP-44" style="edgeStyle=orthogonalEdgeStyle;rounded=0;orthogonalLoop=1;jettySize=auto;html=1;entryX=1;entryY=0.5;entryDx=0;entryDy=0;" parent="1" source="HrcSeMDK22qykb-ifzZP-26" target="HrcSeMDK22qykb-ifzZP-14" edge="1">
          <mxGeometry relative="1" as="geometry">
            <Array as="points">
              <mxPoint x="555" y="618" />
              <mxPoint x="555" y="583" />
            </Array>
          </mxGeometry>
        </mxCell>
        <mxCell id="HrcSeMDK22qykb-ifzZP-48" value="/7" style="edgeLabel;html=1;align=center;verticalAlign=middle;resizable=0;points=[];" parent="HrcSeMDK22qykb-ifzZP-44" vertex="1" connectable="0">
          <mxGeometry x="-0.5784" y="-2" relative="1" as="geometry">
            <mxPoint as="offset" />
          </mxGeometry>
        </mxCell>
        <mxCell id="HrcSeMDK22qykb-ifzZP-26" value="storage_col_idx" style="text;html=1;strokeColor=none;fillColor=none;align=center;verticalAlign=middle;whiteSpace=wrap;rounded=0;" parent="1" vertex="1">
          <mxGeometry x="635" y="603" width="110" height="30" as="geometry" />
        </mxCell>
        <mxCell id="HrcSeMDK22qykb-ifzZP-27" value="storage_wr_done" style="text;html=1;strokeColor=none;fillColor=none;align=center;verticalAlign=middle;whiteSpace=wrap;rounded=0;" parent="1" vertex="1">
          <mxGeometry x="635" y="628" width="110" height="30" as="geometry" />
        </mxCell>
        <mxCell id="HrcSeMDK22qykb-ifzZP-54" style="edgeStyle=orthogonalEdgeStyle;rounded=0;orthogonalLoop=1;jettySize=auto;html=1;entryX=0;entryY=0.5;entryDx=0;entryDy=0;" parent="1" source="HrcSeMDK22qykb-ifzZP-28" target="HrcSeMDK22qykb-ifzZP-16" edge="1">
          <mxGeometry relative="1" as="geometry">
            <Array as="points">
              <mxPoint x="610" y="378" />
              <mxPoint x="615" y="378" />
              <mxPoint x="615" y="403" />
            </Array>
          </mxGeometry>
        </mxCell>
        <mxCell id="HrcSeMDK22qykb-ifzZP-28" value="&lt;b&gt;&lt;font color=&quot;#66cc00&quot; style=&quot;font-size: 14px;&quot;&gt;load&lt;/font&gt;&lt;/b&gt;" style="text;html=1;align=center;verticalAlign=middle;resizable=0;points=[];autosize=1;strokeColor=none;fillColor=none;" parent="1" vertex="1">
          <mxGeometry x="585" y="328" width="50" height="30" as="geometry" />
        </mxCell>
        <mxCell id="HrcSeMDK22qykb-ifzZP-29" value="&lt;b&gt;&lt;font color=&quot;#ff0000&quot; style=&quot;font-size: 14px;&quot;&gt;done&lt;/font&gt;&lt;/b&gt;" style="text;html=1;align=center;verticalAlign=middle;resizable=0;points=[];autosize=1;strokeColor=none;fillColor=none;" parent="1" vertex="1">
          <mxGeometry x="1005" y="410" width="60" height="30" as="geometry" />
        </mxCell>
        <mxCell id="HrcSeMDK22qykb-ifzZP-38" style="edgeStyle=orthogonalEdgeStyle;rounded=0;orthogonalLoop=1;jettySize=auto;html=1;entryX=0;entryY=0.5;entryDx=0;entryDy=0;" parent="1" source="HrcSeMDK22qykb-ifzZP-30" target="HrcSeMDK22qykb-ifzZP-7" edge="1">
          <mxGeometry relative="1" as="geometry" />
        </mxCell>
        <mxCell id="HrcSeMDK22qykb-ifzZP-39" value="/8" style="edgeLabel;html=1;align=center;verticalAlign=middle;resizable=0;points=[];" parent="HrcSeMDK22qykb-ifzZP-38" vertex="1" connectable="0">
          <mxGeometry x="0.0333" y="-3" relative="1" as="geometry">
            <mxPoint as="offset" />
          </mxGeometry>
        </mxCell>
        <mxCell id="HrcSeMDK22qykb-ifzZP-30" value="&lt;b&gt;&lt;font color=&quot;#66cc00&quot; style=&quot;font-size: 14px;&quot;&gt;data_in&lt;/font&gt;&lt;/b&gt;" style="text;html=1;align=center;verticalAlign=middle;resizable=0;points=[];autosize=1;strokeColor=none;fillColor=none;" parent="1" vertex="1">
          <mxGeometry x="45" y="388" width="70" height="30" as="geometry" />
        </mxCell>
        <mxCell id="HrcSeMDK22qykb-ifzZP-55" style="edgeStyle=orthogonalEdgeStyle;rounded=0;orthogonalLoop=1;jettySize=auto;html=1;entryX=0;entryY=0.5;entryDx=0;entryDy=0;" parent="1" source="HrcSeMDK22qykb-ifzZP-31" target="HrcSeMDK22qykb-ifzZP-17" edge="1">
          <mxGeometry relative="1" as="geometry">
            <Array as="points">
              <mxPoint x="575" y="433" />
            </Array>
          </mxGeometry>
        </mxCell>
        <mxCell id="HrcSeMDK22qykb-ifzZP-31" value="&lt;b&gt;&lt;font color=&quot;#66cc00&quot; style=&quot;font-size: 14px;&quot;&gt;rd_data_in&lt;/font&gt;&lt;/b&gt;" style="text;html=1;align=center;verticalAlign=middle;resizable=0;points=[];autosize=1;strokeColor=none;fillColor=none;" parent="1" vertex="1">
          <mxGeometry x="535" y="268" width="90" height="30" as="geometry" />
        </mxCell>
        <mxCell id="HrcSeMDK22qykb-ifzZP-32" value="&lt;font color=&quot;#ff0000&quot;&gt;&lt;span style=&quot;font-size: 14px;&quot;&gt;&lt;b&gt;rdy_data_in&lt;/b&gt;&lt;/span&gt;&lt;/font&gt;" style="text;html=1;align=center;verticalAlign=middle;resizable=0;points=[];autosize=1;strokeColor=none;fillColor=none;" parent="1" vertex="1">
          <mxGeometry x="985" y="358" width="100" height="30" as="geometry" />
        </mxCell>
        <mxCell id="HrcSeMDK22qykb-ifzZP-40" style="edgeStyle=orthogonalEdgeStyle;rounded=0;orthogonalLoop=1;jettySize=auto;html=1;entryX=0;entryY=0.5;entryDx=0;entryDy=0;" parent="1" source="HrcSeMDK22qykb-ifzZP-33" target="HrcSeMDK22qykb-ifzZP-8" edge="1">
          <mxGeometry relative="1" as="geometry" />
        </mxCell>
        <mxCell id="HrcSeMDK22qykb-ifzZP-41" value="/6" style="edgeLabel;html=1;align=center;verticalAlign=middle;resizable=0;points=[];" parent="HrcSeMDK22qykb-ifzZP-40" vertex="1" connectable="0">
          <mxGeometry x="-0.4222" y="2" relative="1" as="geometry">
            <mxPoint x="2" y="3" as="offset" />
          </mxGeometry>
        </mxCell>
        <mxCell id="HrcSeMDK22qykb-ifzZP-33" value="&lt;b&gt;&lt;font color=&quot;#66cc00&quot; style=&quot;font-size: 14px;&quot;&gt;rd_slice_addr&lt;/font&gt;&lt;/b&gt;" style="text;html=1;align=center;verticalAlign=middle;resizable=0;points=[];autosize=1;strokeColor=none;fillColor=none;" parent="1" vertex="1">
          <mxGeometry x="20" y="418" width="110" height="30" as="geometry" />
        </mxCell>
        <mxCell id="HrcSeMDK22qykb-ifzZP-34" value="&lt;b&gt;&lt;font color=&quot;#ff0000&quot; style=&quot;font-size: 14px;&quot;&gt;rd_slice_data&lt;/font&gt;&lt;/b&gt;" style="text;html=1;align=center;verticalAlign=middle;resizable=0;points=[];autosize=1;strokeColor=none;fillColor=none;" parent="1" vertex="1">
          <mxGeometry x="555" y="178" width="110" height="30" as="geometry" />
        </mxCell>
        <mxCell id="HrcSeMDK22qykb-ifzZP-35" style="edgeStyle=orthogonalEdgeStyle;rounded=0;orthogonalLoop=1;jettySize=auto;html=1;entryX=0;entryY=0.6;entryDx=0;entryDy=0;entryPerimeter=0;" parent="1" source="HrcSeMDK22qykb-ifzZP-9" target="HrcSeMDK22qykb-ifzZP-34" edge="1">
          <mxGeometry relative="1" as="geometry" />
        </mxCell>
        <mxCell id="HrcSeMDK22qykb-ifzZP-37" value="/17424" style="edgeLabel;html=1;align=center;verticalAlign=middle;resizable=0;points=[];" parent="HrcSeMDK22qykb-ifzZP-35" vertex="1" connectable="0">
          <mxGeometry x="-0.1834" y="-1" relative="1" as="geometry">
            <mxPoint as="offset" />
          </mxGeometry>
        </mxCell>
        <mxCell id="HrcSeMDK22qykb-ifzZP-56" style="edgeStyle=orthogonalEdgeStyle;rounded=0;orthogonalLoop=1;jettySize=auto;html=1;entryX=-0.033;entryY=0.433;entryDx=0;entryDy=0;entryPerimeter=0;" parent="1" source="HrcSeMDK22qykb-ifzZP-19" target="HrcSeMDK22qykb-ifzZP-29" edge="1">
          <mxGeometry relative="1" as="geometry" />
        </mxCell>
        <mxCell id="HrcSeMDK22qykb-ifzZP-57" style="edgeStyle=orthogonalEdgeStyle;rounded=0;orthogonalLoop=1;jettySize=auto;html=1;entryX=-0.02;entryY=0.633;entryDx=0;entryDy=0;entryPerimeter=0;" parent="1" source="HrcSeMDK22qykb-ifzZP-18" target="HrcSeMDK22qykb-ifzZP-32" edge="1">
          <mxGeometry relative="1" as="geometry" />
        </mxCell>
      </root>
    </mxGraphModel>
  </diagram>
</mxfile>
